PathFileType	4	(X/Y/Z)	C:/Users/opensim2020/Desktop/walking_exp_matlab/subject03_walking04_straight_03.trc																																																																																																																																																							
DataRate	CameraRate	NumFrames	NumMarkers	Units	OrigDataRate	OrigDataStartFrame	OrigNumFrames																																																																																																																																																			
100	100	7	51	mm	100	2405	256																																																																																																																																																			
Frame#	Time	LFHD			RFHD			LBHD			RBHD			C7			T10			CLAV			STRN			RBAK			LSHO			LUPA			LELB			LFRM			LWRA			LWRB			LFIN			RSHO			RUPA			RELB			RFRM			RWRA			RWRB			RFIN			LASI			RASI			LPSI			RPSI			LTHI			LKNE			LTIB			LANK			LHEE			LTOE			RTHI			RKNE			RTIB			RANK			RHEE			RTOE			*39			*40			*41			*42			*43			*44			*45			*46			*47			*48			*49			*50		
		X1	Y1	Z1	X2	Y2	Z2	X3	Y3	Z3	X4	Y4	Z4	X5	Y5	Z5	X6	Y6	Z6	X7	Y7	Z7	X8	Y8	Z8	X9	Y9	Z9	X10	Y10	Z10	X11	Y11	Z11	X12	Y12	Z12	X13	Y13	Z13	X14	Y14	Z14	X15	Y15	Z15	X16	Y16	Z16	X17	Y17	Z17	X18	Y18	Z18	X19	Y19	Z19	X20	Y20	Z20	X21	Y21	Z21	X22	Y22	Z22	X23	Y23	Z23	X24	Y24	Z24	X25	Y25	Z25	X26	Y26	Z26	X27	Y27	Z27	X28	Y28	Z28	X29	Y29	Z29	X30	Y30	Z30	X31	Y31	Z31	X32	Y32	Z32	X33	Y33	Z33	X34	Y34	Z34	X35	Y35	Z35	X36	Y36	Z36	X37	Y37	Z37	X38	Y38	Z38	X39	Y39	Z39	X40	Y40	Z40	X41	Y41	Z41	X42	Y42	Z42	X43	Y43	Z43	X44	Y44	Z44	X45	Y45	Z45	X46	Y46	Z46	X47	Y47	Z47	X48	Y48	Z48	X49	Y49	Z49	X50	Y50	Z50	X51	Y51	Z51
																																																																																																																																																										
161	1.6	323.68326	1623.41272	-1224.47388	303.23074	1624.97437	-1092.70264	196.21654	1579.60205	-1239.92981	181.40343	1581.21838	-1109.66553	162.24808	1416.38989	-1178.32861	135.3891	1102.8186	-1172.41687	284.39154	1341.87964	-1174.31958	332.71475	1178.36023	-1180.21216	111.32652	1239.9303	-1080.21838	241.33755	1376.81592	-1331.05945	251.51128	1180.20996	-1400.72534	275.40268	1059.08032	-1411.93408	321.3801	936.92358	-1406.255	356.63022	824.74524	-1371.29822	337.72659	824.74042	-1423.97583	363.58218	744.56683	-1408.94812	238.13211	1363.90784	-1015.14178	246.21814	1141.29956	-941.87903	264.93649	1030.0498	-927.57227	288.66354	895.29938	-926.341	323.6127	802.07806	-962.87964	293.82217	794.90698	-918.13696	319.32861	724.99225	-930.18475	298.68958	936.29968	-1291.66699	306.33987	943.25507	-1053.60571	138.96724	959.00189	-1237.76782	144.93692	975.28278	-1088.51746	268.26984	632.50977	-1345.17078	295.94397	455.20581	-1328.06055	140.94693	334.74573	-1318.66357	-14.02579	200.93767	-1271.15381	-61.98719	210.60812	-1228.63684	43.79494	61.98737	-1255.97876	251.9211	648.03992	-1017.8606	267.95319	468.34982	-1058.46838	228.41592	282.14642	-1059.69495	210.05101	67.86913	-1115.33765	166.9214	36.66936	-1166.43469	353.54996	30.48884	-1132.64697	NaN	NaN	NaN	NaN	NaN	NaN	NaN	NaN	NaN	NaN	NaN	NaN	NaN	NaN	NaN	NaN	NaN	NaN	NaN	NaN	NaN	NaN	NaN	NaN	NaN	NaN	NaN	NaN	NaN	NaN	NaN	NaN	NaN	NaN	NaN	NaN
162	1.61	333.13766	1623.37585	-1224.68237	312.82526	1625.20081	-1092.86511	205.70699	1579.3811	-1239.94019	191.05606	1581.21716	-1109.60254	171.49748	1416.75244	-1177.93201	144.23749	1103.0957	-1171.88403	293.73642	1341.89099	-1174.05859	341.58423	1178.25098	-1179.64294	120.74457	1240.55786	-1079.31836	250.12715	1376.67395	-1330.77332	257.97382	1179.74463	-1400.39636	280.82556	1058.32227	-1411.54285	324.68506	935.3468	-1406.10376	357.74072	822.39087	-1371.69458	339.22531	823.06281	-1424.35303	363.78696	742.53864	-1410.12634	248.035	1364.42029	-1014.81799	258.79205	1141.97949	-941.41321	279.27032	1031.05225	-927.33032	304.81161	896.63263	-925.83429	340.68375	803.92377	-962.82831	311.44461	796.40564	-917.71521	338.4519	727.21985	-929.54077	308.14099	937.11865	-1290.71521	314.78143	943.18097	-1052.68604	148.00938	959.52393	-1237.6991	153.58128	975.19757	-1088.38013	282.73239	633.60132	-1345.46729	314.23871	456.67065	-1327.63	161.78264	333.41641	-1318.57849	8.28043	197.35873	-1271.97314	-40.66981	205.09654	-1229.79114	71.61713	61.37539	-1256.46301	259.138	647.66779	-1018.12085	272.9613	467.98157	-1058.49939	231.26414	282.15439	-1059.78992	210.50858	68.10236	-1115.54504	166.85681	36.80194	-1166.60303	353.6647	30.41911	-1132.65161	NaN	NaN	NaN	NaN	NaN	NaN	NaN	NaN	NaN	NaN	NaN	NaN	NaN	NaN	NaN	NaN	NaN	NaN	NaN	NaN	NaN	NaN	NaN	NaN	NaN	NaN	NaN	NaN	NaN	NaN	NaN	NaN	NaN	NaN	NaN	NaN
163	1.62	342.5834	1623.2489	-1224.95923	322.40042	1625.38464	-1093.09644	215.18364	1579.16382	-1239.95569	200.58719	1581.40564	-1109.6449	180.81233	1416.91284	-1177.46362	153.03987	1103.35486	-1171.51294	303.01044	1341.8407	-1173.79834	350.54431	1178.12976	-1179.05493	130.13812	1241.13818	-1078.46338	258.92355	1376.72388	-1330.50903	264.38617	1179.32275	-1400.15039	285.83533	1057.70544	-1411.19971	327.8898	934.04858	-1406.04419	358.76666	820.28027	-1372.08301	340.38458	821.64899	-1424.80933	363.94473	740.86462	-1411.31653	257.90704	1364.90979	-1014.61249	271.08981	1142.76624	-940.95911	293.4465	1032.20471	-927.0932	320.95755	898.21924	-925.72131	357.77313	805.96545	-962.71283	329.15747	798.17175	-917.22229	357.47058	729.66504	-928.9292	317.78214	937.62079	-1290.11157	323.12213	942.96655	-1051.69995	157.13518	959.97345	-1237.74731	162.0757	975.112	-1088.28003	297.79922	634.65918	-1344.78857	332.31863	458.30884	-1326.92346	182.5605	331.93811	-1318.58093	31.48562	192.88162	-1272.73975	-18.71866	198.61415	-1231.0094	100.51147	60.13271	-1256.42261	265.1817	647.46069	-1017.82501	278.03198	467.66653	-1058.60974	233.98863	282.20795	-1060.14221	210.73959	68.37482	-1115.68701	166.94083	37.29497	-1166.7229	353.81027	30.36872	-1132.66431	252.979	1685.90552	-1185.26172	NaN	NaN	NaN	NaN	NaN	NaN	NaN	NaN	NaN	NaN	NaN	NaN	NaN	NaN	NaN	NaN	NaN	NaN	NaN	NaN	NaN	NaN	NaN	NaN	NaN	NaN	NaN	NaN	NaN	NaN	NaN	NaN	NaN
164	1.63	352.05615	1623.13025	-1225.29114	332.00253	1625.53564	-1093.44226	224.60345	1578.99048	-1239.98694	210.24294	1581.46716	-1109.67688	190.04529	1417.08533	-1177.03772	161.86853	1103.59607	-1171.17847	312.26199	1341.83167	-1173.57349	359.32306	1177.98376	-1178.4967	139.54573	1241.66687	-1077.57971	267.8085	1376.74988	-1330.15393	270.7341	1179.05566	-1399.7522	290.77609	1057.27332	-1410.82825	330.90421	932.96106	-1406.05164	360.15945	818.62531	-1372.71716	341.57068	820.54535	-1425.2948	364.22791	739.53766	-1412.50476	267.64685	1365.46399	-1014.30426	283.32373	1143.66541	-940.57703	307.46222	1033.45068	-926.86969	337.05267	899.94031	-925.39453	374.86942	808.18915	-962.52277	346.89255	800.13062	-916.77264	376.28421	732.16876	-928.33154	326.95328	938.16479	-1289.19641	331.29935	942.58667	-1050.88574	166.19409	960.36157	-1237.88733	170.51767	974.9566	-1088.2749	311.4671	636.27289	-1344.30469	350.12109	460.16794	-1326.11816	203.30469	330.24472	-1318.5083	55.35873	187.52635	-1273.54431	4.04135	190.87755	-1232.21191	130.60855	58.71061	-1256.26746	272.5108	646.98383	-1018.15442	283.0481	467.32404	-1058.65637	237.13388	282.237	-1060.05591	211.14349	68.64744	-1115.84338	167.0513	37.7694	-1166.776	353.94324	30.30166	-1132.66711	262.45377	1685.80383	-1185.65808	NaN	NaN	NaN	NaN	NaN	NaN	NaN	NaN	NaN	NaN	NaN	NaN	NaN	NaN	NaN	NaN	NaN	NaN	NaN	NaN	NaN	NaN	NaN	NaN	NaN	NaN	NaN	NaN	NaN	NaN	NaN	NaN	NaN
165	1.64	361.56372	1622.88281	-1225.71448	341.6886	1625.69971	-1093.80042	234.04929	1578.8894	-1240.11584	219.81828	1581.80359	-1109.80518	199.18788	1417.25562	-1176.5863	170.59343	1103.84119	-1170.94861	321.50003	1341.79773	-1173.3562	368.14322	1177.82568	-1177.94556	148.92792	1242.12476	-1076.70764	276.78311	1376.80029	-1329.89343	277.20563	1178.93958	-1399.6322	295.40356	1056.85229	-1410.58411	333.81	932.00421	-1406.13	361.21902	817.03619	-1373.26221	342.58597	819.55011	-1425.76587	364.52777	738.3678	-1413.70557	277.29813	1365.95361	-1014.13568	295.34872	1144.55334	-940.09796	321.26559	1034.74377	-926.55121	353.00562	901.81543	-925.08783	392.11511	810.57819	-962.29547	364.5687	802.18024	-916.36035	395.12643	734.71741	-927.81049	336.25729	938.65045	-1288.427	339.51779	942.19464	-1050.0658	175.20653	960.68457	-1238.09082	178.84372	974.82361	-1088.34094	327.32825	637.62347	-1343.40833	367.54446	462.19815	-1325.05273	224.06978	328.3313	-1318.43774	79.84336	181.27116	-1274.25684	27.62555	182.09027	-1233.32886	161.526	56.95566	-1255.98779	279.17117	646.69238	-1018.17688	287.93063	466.95404	-1058.70435	240.06258	282.27988	-1060.19666	211.72437	69.15352	-1115.90918	167.33405	38.23868	-1166.89661	354.07117	30.1546	-1132.83899	NaN	NaN	NaN	NaN	NaN	NaN	NaN	NaN	NaN	NaN	NaN	NaN	NaN	NaN	NaN	NaN	NaN	NaN	NaN	NaN	NaN	NaN	NaN	NaN	NaN	NaN	NaN	NaN	NaN	NaN	NaN	NaN	NaN	NaN	NaN	NaN
166	1.65	371.09427	1622.68494	-1226.00146	351.34412	1625.78284	-1094.18884	243.48262	1578.75916	-1240.26257	229.47064	1582.06177	-1109.88721	208.44377	1417.34924	-1176.19507	179.35191	1104.02698	-1170.66479	330.65552	1341.77942	-1173.10974	377.03949	1177.677	-1177.43176	158.32698	1242.51367	-1075.86353	285.7547	1376.76917	-1329.58154	283.56677	1178.65271	-1399.23889	299.95947	1056.65784	-1410.67261	336.62033	931.11993	-1406.30298	362.1889	815.70624	-1373.64355	343.60852	818.69305	-1426.28467	364.87079	737.29309	-1414.86926	286.92804	1366.40857	-1013.97955	307.12012	1145.35632	-939.52356	334.888	1036.06262	-926.19092	368.832	903.67316	-924.67847	409.72836	812.94055	-962.19159	382.08804	804.32819	-915.93054	413.63773	737.29047	-927.36993	345.38199	939.0141	-1287.71399	347.43634	941.63367	-1049.33679	184.16322	960.88104	-1238.39392	187.19685	974.67621	-1088.45203	340.94046	639.12903	-1343.21619	384.55533	464.37881	-1323.76575	245.03181	326.11865	-1317.82031	105.10016	174.2601	-1274.99597	52.18019	172.25261	-1234.5437	193.25627	55.16081	-1255.76501	285.36478	646.46167	-1018.04523	292.72244	466.63037	-1058.81982	242.82509	282.366	-1060.44861	212.1021	69.55839	-1116.07788	167.53085	39.13158	-1166.96448	354.11209	30.13753	-1132.6604	NaN	NaN	NaN	NaN	NaN	NaN	NaN	NaN	NaN	NaN	NaN	NaN	NaN	NaN	NaN	NaN	NaN	NaN	NaN	NaN	NaN	NaN	NaN	NaN	NaN	NaN	NaN	NaN	NaN	NaN	NaN	NaN	NaN	NaN	NaN	NaN
167	1.66	380.69186	1622.33838	-1226.43372	361.02664	1625.80969	-1094.68103	252.92448	1578.7124	-1240.2323	239.04907	1582.3269	-1110.06519	217.65503	1417.54016	-1175.9585	188.01373	1104.19836	-1170.40027	339.83685	1341.67102	-1172.9458	385.89832	1177.50049	-1177.0293	167.70412	1242.79956	-1075.16956	294.80243	1376.70056	-1329.38965	290.45444	1178.45142	-1399.78284	304.32996	1056.08813	-1410.43958	339.37775	930.23492	-1406.5979	363.53391	814.40845	-1374.25696	344.42786	817.64655	-1426.64795	365.26489	736.35541	-1415.94055	296.39587	1366.75391	-1013.87164	318.88358	1146.14685	-939.13147	348.2767	1037.3009	-925.64813	384.5697	905.5506	-924.25568	426.35181	815.20166	-961.9837	399.51025	806.46582	-915.54865	432.10107	739.91388	-926.95313	354.38608	939.42255	-1286.93994	355.63779	941.07507	-1048.72693	193.04439	961.02539	-1238.65161	195.25774	974.53845	-1088.47681	354.6608	640.55304	-1342.73999	401.05807	466.47406	-1322.44702	265.82443	323.70572	-1317.39978	131.13078	166.6841	-1275.4718	77.84052	161.95872	-1235.62158	225.33318	52.88597	-1255.55786	292.04214	645.95264	-1018.22479	297.31027	466.25104	-1058.83374	245.65451	282.49631	-1060.57092	212.5081	70.04829	-1116.15906	167.72227	39.82306	-1166.75024	354.25925	30.11847	-1132.63574	291.6767	1685.5332	-1187.00708	NaN	NaN	NaN	NaN	NaN	NaN	NaN	NaN	NaN	NaN	NaN	NaN	NaN	NaN	NaN	NaN	NaN	NaN	NaN	NaN	NaN	NaN	NaN	NaN	NaN	NaN	NaN	NaN	NaN	NaN	NaN	NaN	NaN
